<svg width="25" height="25" viewBox="0 0 25 25" fill="none" xmlns="http://www.w3.org/2000/svg">
<path d="M2.5 5.53333C2.5 4.13604 3.62109 3 5 3H16.25C17.6289 3 18.75 4.13604 18.75 5.53333V6.8H20.7305C21.3945 6.8 22.0312 7.06521 22.5 7.54021L24.2695 9.33333C24.7383 9.80833 25 10.4535 25 11.1265V16.9333C25 18.3306 23.8789 19.4667 22.5 19.4667H22.3711C21.9648 20.9273 20.6367 22 19.0625 22C17.4883 22 16.1641 20.9273 15.7539 19.4667H11.7461C11.3398 20.9273 10.0117 22 8.4375 22C6.86328 22 5.53906 20.9273 5.12891 19.4667H5C3.62109 19.4667 2.5 18.3306 2.5 16.9333V15.0333H0.9375C0.417969 15.0333 0 14.6098 0 14.0833C0 13.5569 0.417969 13.1333 0.9375 13.1333H5.3125C5.83203 13.1333 6.25 12.7098 6.25 12.1833C6.25 11.6569 5.83203 11.2333 5.3125 11.2333H0.9375C0.417969 11.2333 0 10.8098 0 10.2833C0 9.75687 0.417969 9.33333 0.9375 9.33333H7.8125C8.33203 9.33333 8.75 8.90979 8.75 8.38333C8.75 7.85687 8.33203 7.43333 7.8125 7.43333H0.9375C0.417969 7.43333 0 7.00979 0 6.48333C0 5.95687 0.417969 5.53333 0.9375 5.53333H2.5ZM22.5 13.1333V11.1265L20.7305 9.33333H18.75V13.1333H22.5ZM10 18.5167C10 17.6419 9.30078 16.9333 8.4375 16.9333C7.57422 16.9333 6.875 17.6419 6.875 18.5167C6.875 19.3915 7.57422 20.1 8.4375 20.1C9.30078 20.1 10 19.3915 10 18.5167ZM19.0625 20.1C19.9258 20.1 20.625 19.3915 20.625 18.5167C20.625 17.6419 19.9258 16.9333 19.0625 16.9333C18.1992 16.9333 17.5 17.6419 17.5 18.5167C17.5 19.3915 18.1992 20.1 19.0625 20.1Z" fill="#092D72"/>
</svg>
