<svg width="20" height="20" viewBox="0 0 20 20" fill="none" xmlns="http://www.w3.org/2000/svg">
<path d="M10.0019 0C7.45131 0 5.38543 2.13095 5.38543 4.7619C5.38543 7.39286 7.45131 9.52381 10.0019 9.52381C12.5525 9.52381 14.6184 7.39286 14.6184 4.7619C14.6184 2.13095 12.5525 0 10.0019 0ZM12.3102 12.4127C12.1024 12.3929 11.887 12.381 11.6716 12.381H8.32844C8.11301 12.381 7.90142 12.3929 7.68983 12.4127V15.0913C8.3246 15.3929 8.76701 16.0556 8.76701 16.8214C8.76701 17.873 7.93989 18.7262 6.92041 18.7262C5.90094 18.7262 5.07382 17.873 5.07382 16.8214C5.07382 16.0516 5.51623 15.3889 6.151 15.0913V12.7738C3.73119 13.6905 2 16.0952 2 18.9127C2 19.5119 2.47319 20 3.0541 20H16.9459C17.5268 20 18 19.5119 18 18.9127C18 16.0952 16.2688 13.6944 13.8452 12.7778V14.2619C14.7415 14.5873 15.384 15.4722 15.384 16.5079V17.7778C15.384 18.2143 15.0377 18.5714 14.6146 18.5714C14.1914 18.5714 13.8452 18.2143 13.8452 17.7778V16.5079C13.8452 16.0714 13.4989 15.7143 13.0757 15.7143C12.6526 15.7143 12.3063 16.0714 12.3063 16.5079V17.7778C12.3063 18.2143 11.9601 18.5714 11.5369 18.5714C11.1137 18.5714 10.7675 18.2143 10.7675 17.7778V16.5079C10.7675 15.4722 11.41 14.5913 12.3063 14.2619V12.4127H12.3102Z" fill="#092D72"/>
</svg>
