<svg width="20" height="20" viewBox="0 0 20 20" fill="none" xmlns="http://www.w3.org/2000/svg">
<path d="M9.04894 2.92702C9.34894 2.00602 10.6519 2.00602 10.9509 2.92702L12.2369 6.87002C12.3023 7.07051 12.4294 7.2452 12.6 7.36912C12.7706 7.49305 12.9761 7.55986 13.1869 7.56002H17.3369C18.3059 7.56002 18.7079 8.80002 17.9249 9.37002L14.5649 11.814C14.394 11.938 14.2667 12.113 14.2013 12.3139C14.1359 12.5147 14.1358 12.7311 14.2009 12.932L15.4869 16.875C15.7869 17.796 14.7319 18.563 13.9469 17.993L10.5869 15.549C10.4161 15.4248 10.2102 15.3579 9.99894 15.3579C9.78767 15.3579 9.58183 15.4248 9.41094 15.549L6.05094 17.993C5.26694 18.563 4.21294 17.796 4.51094 16.875L5.79794 12.932C5.86312 12.7311 5.863 12.5147 5.79761 12.3139C5.73222 12.113 5.60491 11.938 5.43394 11.814L2.07494 9.37002C1.29194 8.80002 1.69494 7.56002 2.66294 7.56002H6.81294C7.02382 7.55986 7.22925 7.49305 7.39987 7.36912C7.57049 7.2452 7.69757 7.07051 7.76294 6.87002L9.04894 2.92702Z" fill="#092D72"/>
</svg>
