<svg width="25" height="25" viewBox="0 0 25 25" fill="none" xmlns="http://www.w3.org/2000/svg">
<g clip-path="url(#clip0_7_1407)">
<path d="M13.1421 0.636685C12.9408 0.547133 12.7252 0.5 12.5 0.5C12.2748 0.5 12.0592 0.547133 11.8579 0.636685L2.83523 4.40259C1.78106 4.84093 0.99523 5.86371 1.00002 7.09859C1.02398 11.7742 2.97898 20.3288 11.235 24.2172C12.0352 24.5943 12.9648 24.5943 13.765 24.2172C22.0258 20.3288 23.9808 11.7742 24 7.09859C24.0048 5.86371 23.2189 4.84093 22.1648 4.40259L13.1421 0.636685ZM12.1933 9.14886L12.5 9.54949L12.8067 9.14886C13.3385 8.4513 14.1723 8.04124 15.054 8.04124C16.6064 8.04124 17.8667 9.28083 17.8667 10.8079V11.0577C17.8667 13.372 14.7137 15.6815 13.2427 16.6335C12.7875 16.9258 12.2125 16.9258 11.7621 16.6335C10.291 15.6815 7.13814 13.3672 7.13814 11.0577V10.8079C7.13814 9.28083 8.39834 8.04124 9.95084 8.04124C10.8373 8.04124 11.671 8.4513 12.1981 9.14886H12.1933Z" fill="#092D72"/>
</g>
<defs>
<clipPath id="clip0_7_1407">
<rect width="25" height="25" fill="white"/>
</clipPath>
</defs>
</svg>
