<svg width="25" height="25" viewBox="0 0 25 25" fill="none" xmlns="http://www.w3.org/2000/svg">
<g clip-path="url(#clip0_7_1399)">
<path d="M3 3.125C3 1.40137 4.42005 0 6.16667 0H18.8333C20.5799 0 22 1.40137 22 3.125V21.875C22 23.5986 20.5799 25 18.8333 25H6.16667C4.42005 25 3 23.5986 3 21.875V3.125ZM6.95833 17.9688C6.95833 18.3984 7.31458 18.75 7.75 18.75H17.25C17.6854 18.75 18.0417 18.3984 18.0417 17.9688C18.0417 15.8105 16.2703 14.0625 14.0833 14.0625H10.9167C8.72969 14.0625 6.95833 15.8105 6.95833 17.9688ZM12.5 12.1094C14.0289 12.1094 15.2708 10.8838 15.2708 9.375C15.2708 7.86621 14.0289 6.64062 12.5 6.64062C10.9711 6.64062 9.72917 7.86621 9.72917 9.375C9.72917 10.8838 10.9711 12.1094 12.5 12.1094Z" fill="#092D72"/>
</g>
<defs>
<clipPath id="clip0_7_1399">
<rect width="25" height="25" fill="white"/>
</clipPath>
</defs>
</svg>
