<svg width="25" height="25" viewBox="0 0 25 25" fill="none" xmlns="http://www.w3.org/2000/svg">
<g clip-path="url(#clip0_7_1403)">
<path d="M3 1.5625C3 0.698242 3.70755 0 4.58333 0H20.4167C21.2924 0 22 0.698242 22 1.5625V3.125C22 3.98926 21.2924 4.6875 20.4167 4.6875H4.58333C3.70755 4.6875 3 3.98926 3 3.125V1.5625ZM4.58333 7.03125H20.4167V21.875C20.4167 23.5986 18.9966 25 17.25 25H7.75C6.00339 25 4.58333 23.5986 4.58333 21.875H8.14583C8.80391 21.875 9.33333 21.3525 9.33333 20.7031C9.33333 20.0537 8.80391 19.5312 8.14583 19.5312H4.58333V17.1875H8.14583C8.80391 17.1875 9.33333 16.665 9.33333 16.0156C9.33333 15.3662 8.80391 14.8438 8.14583 14.8438H4.58333V12.5H8.14583C8.80391 12.5 9.33333 11.9775 9.33333 11.3281C9.33333 10.6787 8.80391 10.1562 8.14583 10.1562H4.58333V7.03125Z" fill="#092D72"/>
</g>
<defs>
<clipPath id="clip0_7_1403">
<rect width="25" height="25" fill="white"/>
</clipPath>
</defs>
</svg>
