<svg width="14" height="14" viewBox="0 0 14 14" fill="none" xmlns="http://www.w3.org/2000/svg">
<path d="M13.1133 7C13.1133 6.25333 12.9889 5.53778 12.74 4.85333C12.4911 4.16889 12.1178 3.54667 11.62 2.98667L2.98667 11.62C3.88889 12.3978 4.93111 12.8722 6.11333 13.0433C7.29556 13.2144 8.43889 13.0511 9.54333 12.5533C10.6478 12.0556 11.5189 11.3089 12.1567 10.3133C12.7944 9.31778 13.1133 8.21333 13.1133 7ZM2.38 11.0133L11.0133 2.38C10.2044 1.69556 9.29444 1.24444 8.28333 1.02667C7.27222 0.808888 6.26889 0.84 5.27333 1.12C4.27778 1.4 3.40667 1.91333 2.66 2.66C1.91333 3.40667 1.4 4.27778 1.12 5.27333C0.84 6.26889 0.808889 7.27222 1.02667 8.28333C1.24444 9.29444 1.69556 10.2044 2.38 11.0133ZM14 7C14 8.27556 13.6889 9.45 13.0667 10.5233C12.4444 11.5967 11.5967 12.4444 10.5233 13.0667C9.45 13.6889 8.27556 14 7 14C5.72444 14 4.55 13.6889 3.47667 13.0667C2.40333 12.4444 1.55556 11.5967 0.933333 10.5233C0.311111 9.45 0 8.27556 0 7C0 5.72444 0.311111 4.55 0.933333 3.47667C1.55556 2.40333 2.40333 1.55556 3.47667 0.933333C4.55 0.311111 5.72444 0 7 0C8.27556 0 9.45 0.311111 10.5233 0.933333C11.5967 1.55556 12.4444 2.40333 13.0667 3.47667C13.6889 4.55 14 5.72444 14 7Z" fill="#111827"/>
</svg>
