<svg width="20" height="20" viewBox="0 0 20 20" fill="none" xmlns="http://www.w3.org/2000/svg">
<path d="M14.975 1.25H15.3333C16.8042 1.25 18 2.37109 18 3.75V17.5C18 18.8789 16.8042 20 15.3333 20H4.66667C3.19583 20 2 18.8789 2 17.5V3.75C2 2.37109 3.19583 1.25 4.66667 1.25H5.025C5.48333 0.503906 6.34583 0 7.33333 0H12.6667C13.6542 0 14.5167 0.503906 14.975 1.25ZM12.3333 4.375C12.8875 4.375 13.3333 3.95703 13.3333 3.4375C13.3333 2.91797 12.8875 2.5 12.3333 2.5H7.66667C7.1125 2.5 6.66667 2.91797 6.66667 3.4375C6.66667 3.95703 7.1125 4.375 7.66667 4.375H12.3333ZM7.33333 10C7.33333 9.30859 6.7375 8.75 6 8.75C5.2625 8.75 4.66667 9.30859 4.66667 10C4.66667 10.6914 5.2625 11.25 6 11.25C6.7375 11.25 7.33333 10.6914 7.33333 10ZM8.66667 10C8.66667 10.5195 9.1125 10.9375 9.66667 10.9375H14.3333C14.8875 10.9375 15.3333 10.5195 15.3333 10C15.3333 9.48047 14.8875 9.0625 14.3333 9.0625H9.66667C9.1125 9.0625 8.66667 9.48047 8.66667 10ZM8.66667 15C8.66667 15.5195 9.1125 15.9375 9.66667 15.9375H14.3333C14.8875 15.9375 15.3333 15.5195 15.3333 15C15.3333 14.4805 14.8875 14.0625 14.3333 14.0625H9.66667C9.1125 14.0625 8.66667 14.4805 8.66667 15ZM6 16.25C6.7375 16.25 7.33333 15.6914 7.33333 15C7.33333 14.3086 6.7375 13.75 6 13.75C5.2625 13.75 4.66667 14.3086 4.66667 15C4.66667 15.6914 5.2625 16.25 6 16.25Z" fill="#092D72"/>
</svg>
