<svg width="16" height="16" viewBox="0 0 16 16" fill="none" xmlns="http://www.w3.org/2000/svg">
<path d="M3.6267 15.4666C3.41337 15.5377 3.2267 15.511 3.0667 15.3866C2.9067 15.2621 2.84448 15.0755 2.88003 14.8266L3.68003 10.1332L0.160034 6.77325C0.0178121 6.59547 -0.0266323 6.39992 0.026701 6.18658C0.0800343 5.97325 0.231145 5.8488 0.480034 5.81325L5.33337 5.11992L7.52003 0.799916C7.6267 0.586583 7.7867 0.479917 8.00003 0.479917C8.21337 0.479917 8.37337 0.586583 8.48003 0.799916L10.6667 5.11992L15.5734 5.81325C15.7867 5.8488 15.92 5.97325 15.9734 6.18658C16.0267 6.39992 15.9823 6.59547 15.84 6.77325L12.32 10.1332L13.12 14.8266C13.1556 15.0755 13.0934 15.2621 12.9334 15.3866C12.7734 15.511 12.5867 15.5377 12.3734 15.4666L8.00003 13.1732L3.6267 15.4666Z" fill="#FBBF24"/>
</svg>
