<svg width="14" height="14" viewBox="0 0 14 14" fill="none" xmlns="http://www.w3.org/2000/svg">
<path d="M7 13.1133C5.88 13.1133 4.85333 12.8411 3.92 12.2967C2.98667 11.7522 2.24778 11.0133 1.70333 10.08C1.15889 9.14667 0.886667 8.12 0.886667 7C0.886667 5.88 1.15889 4.85333 1.70333 3.92C2.24778 2.98667 2.98667 2.24778 3.92 1.70333C4.85333 1.15889 5.88 0.886666 7 0.886666C8.12 0.886666 9.14667 1.15889 10.08 1.70333C11.0133 2.24778 11.7522 2.98667 12.2967 3.92C12.8411 4.85333 13.1133 5.88 13.1133 7C13.1133 8.12 12.8411 9.14667 12.2967 10.08C11.7522 11.0133 11.0133 11.7522 10.08 12.2967C9.14667 12.8411 8.12 13.1133 7 13.1133ZM7 14C8.27556 14 9.45 13.6889 10.5233 13.0667C11.5967 12.4444 12.4444 11.5967 13.0667 10.5233C13.6889 9.45 14 8.27556 14 7C14 5.72444 13.6889 4.55 13.0667 3.47667C12.4444 2.40333 11.5967 1.55556 10.5233 0.933333C9.45 0.311111 8.27556 0 7 0C5.72444 0 4.55 0.311111 3.47667 0.933333C2.40333 1.55556 1.55556 2.40333 0.933333 3.47667C0.311111 4.55 0 5.72444 0 7C0 8.27556 0.311111 9.45 0.933333 10.5233C1.55556 11.5967 2.40333 12.4444 3.47667 13.0667C4.55 13.6889 5.72444 14 7 14ZM9.61333 4.34L9.56667 4.38667L6.53333 8.26L4.71333 6.39333C4.58889 6.26889 4.43333 6.21444 4.24667 6.23C4.06 6.24556 3.90444 6.31556 3.78 6.44C3.65556 6.56444 3.59333 6.71222 3.59333 6.88333C3.59333 7.05444 3.65556 7.20222 3.78 7.32667L6.11333 9.66C6.23778 9.78444 6.39333 9.84667 6.58 9.84667C6.76667 9.84667 6.92222 9.76889 7.04667 9.61333L10.5467 5.27333C10.6711 5.14889 10.7333 4.99333 10.7333 4.80667C10.7333 4.62 10.6633 4.46444 10.5233 4.34C10.3833 4.21556 10.2278 4.15333 10.0567 4.15333C9.88556 4.15333 9.73778 4.21556 9.61333 4.34Z" fill="#111827"/>
</svg>
