<svg width="81" height="33" viewBox="0 0 81 33" fill="none" xmlns="http://www.w3.org/2000/svg">
<path d="M9.46904 18.3629V15.2655C9.46904 12.8761 8.53983 11.6372 6.76992 11.6372C5.26549 11.6372 4.0708 12.7876 4.0708 14.2036C4.0708 14.9115 4.46903 15.5752 4.46903 16.239C4.46903 17.1239 3.67257 17.8761 2.65487 17.8761C1.50443 17.8761 0.707965 16.9469 0.707965 15.5752C0.707965 12.8761 3.71682 10.708 7.47788 10.708C10.7965 10.708 13.0089 12.3894 13.0089 15.531V27.4779C13.0089 28.9381 13.6055 30.7965 14.3577 30.7965C14.8445 30.7965 15.1752 30.8893 15.7314 30.5907V31.5487C14.6885 31.5487 13.2347 31.5487 11.9072 31.5487C10.3143 31.5487 9.51328 30.885 9.51328 28.4514H9.42479C8.05311 30.9735 6.41593 32.1682 4.46903 32.1682C1.85841 32.1682 0 30.177 0 27.3894C0 24.9558 1.0177 22.7434 5.61947 20.354L9.46904 18.3629ZM9.46904 19.6018C5.39823 21.6372 3.67257 23.2744 3.67257 25.9735C3.67257 28.0531 4.73452 29.5576 6.15045 29.5576C7.2124 29.5576 8.27434 28.8496 9.46904 27.2567V19.6018Z" fill="#092D72"/>
<path d="M20.7294 0V27.9204C20.7294 29.9558 21.8799 30.8407 23.3843 30.7965V31.5487H14.3577V30.7965C16.2604 30.8407 17.1896 29.9115 17.1896 27.4337V6.23895C17.1896 3.93806 16.7471 3.0531 15.5967 3.0531C15.1984 3.0531 14.9329 3.09735 14.3577 3.31859L14.048 2.61062L19.933 0H20.7294Z" fill="#092D72"/>
<path d="M29.048 12.5221V25.7965C29.048 28.2301 29.4462 29.5576 30.9507 29.5576C31.8799 29.5576 32.5878 29.0266 33.0746 27.9646H33.9153C33.0746 30.4868 31.2162 32.1682 29.1365 32.1682C27.1454 32.1682 25.5082 30.708 25.5082 27.1239V12.5221H22.9861V11.6814C25.6852 10.1328 27.2781 8.05311 28.2958 4.69027H29.048V11.1505H32.8091V12.5221H29.048Z" fill="#092D72"/>
<path d="M44.9245 16.1239L42.555 26.4381C42.1833 27.9713 42.1369 28.4359 42.1369 28.9934C42.1369 30.1084 42.8338 30.666 44.4134 30.7589L44.2276 31.5487H35.2143L35.4001 30.7589C36.9798 30.573 37.8161 29.4115 38.513 26.4381L43.2984 5.6239C43.6236 4.13717 43.7165 3.57965 43.7165 3.02213C43.7165 1.86062 42.8802 1.21018 41.3935 1.25664L41.5793 0.420356H50.4068C54.8205 0.420356 59.0948 2.41814 59.0948 7.43585C59.0948 11.6637 55.7032 15.2412 50.8249 16.1239C51.2895 17.1925 51.5683 17.9359 52.0329 19.3761L54.4024 26.4381C55.5639 29.8761 57.3534 30.2167 59.1189 30.4025C59.1189 30.4025 59.4503 31.6365 60.1033 32.2862C57.5222 32.6549 53.4661 32.2862 51.6225 28.9934C49.7788 25.7006 46.9687 16.4027 46.9687 16.4027C46.086 16.4027 45.5749 16.3098 44.9245 16.1239ZM48.1302 2.2323L45.2497 14.7301C46.1324 14.9624 46.7829 15.0553 47.6656 15.0553C51.8006 15.0553 54.6811 11.8031 54.6811 7.15709C54.6811 3.85841 52.9621 1.86062 50.1745 1.86062C49.4776 1.86062 48.9665 1.95354 48.1302 2.2323Z" fill="#092D72"/>
<path d="M74.7516 26.4381L75.5414 26.7168C74.5193 29.9226 72.475 32.1062 70.5702 32.1062C68.944 32.1062 68.1542 30.9912 67.2715 23.4182H67.1786C64.8091 29.458 62.6844 31.9175 60.1033 32.2862C57.5222 32.6549 58.076 30.326 58.9277 30.3817C59.7795 30.4373 60.2911 30.2461 60.8408 30.0738C61.6221 29.8289 62.6129 28.9598 62.6129 28.9598C62.6129 28.9598 63.9263 28.0642 67.0392 21.8385C65.5525 13.7544 64.4839 12.4536 63.1365 12.4536C62.8578 12.4536 62.4396 12.4536 62.2538 12.5465L62.1144 11.8031L66.621 10.4558C67.6896 11.1062 68.7582 14.2655 69.3157 16.9602H69.3622C71.5923 11.9425 73.3113 10.4558 75.2626 10.4558C76.5635 10.4558 77.4927 11.2456 77.4927 12.3606C77.4927 13.3828 76.7029 14.0332 75.9131 14.0332C75.2626 14.0332 74.3799 13.5686 73.8224 13.5686C72.4286 13.5686 71.1741 14.8695 69.548 18.3075C71.1741 27.9713 71.6387 29.5509 72.475 29.5509C73.2184 29.5509 74.1011 28.3894 74.7516 26.4381Z" fill="#092D72"/>
<path d="M78.6767 27.4137C79.9776 27.4137 80.9997 28.4359 80.9997 29.7368C80.9997 31.0376 79.9776 32.1062 78.6767 32.1062C77.3758 32.1062 76.3073 31.0376 76.3073 29.7368C76.3073 28.4359 77.3758 27.4137 78.6767 27.4137Z" fill="#092D72"/>
</svg>
