<svg width="184" height="74" viewBox="0 0 184 74" fill="none" xmlns="http://www.w3.org/2000/svg">
<path d="M21.51 41.9378V34.864C21.51 29.407 19.3992 26.5775 15.3786 26.5775C11.9612 26.5775 9.24728 29.2049 9.24728 32.4387C9.24728 34.0555 10.1519 35.5714 10.1519 37.0872C10.1519 39.1083 8.34265 40.8262 6.03083 40.8262C3.41747 40.8262 1.60822 38.7041 1.60822 35.5714C1.60822 29.407 8.44317 24.4553 16.9868 24.4553C24.5254 24.4553 29.5511 28.2954 29.5511 35.4703V62.7552C29.5511 66.09 30.9064 70.3343 32.6152 70.3343C33.7208 70.3343 34.4722 70.5461 35.7357 69.8642V72.0522C33.3665 72.0522 30.064 72.0522 27.0486 72.0522C23.4301 72.0522 21.6105 70.5364 21.6105 64.9784H21.4095C18.2935 70.7385 14.5745 73.467 10.1519 73.467C4.22158 73.467 0 68.9195 0 62.553C0 56.995 2.31182 51.9423 12.7653 46.4853L21.51 41.9378ZM21.51 44.7674C12.2627 49.4159 8.34265 53.1549 8.34265 59.3193C8.34265 64.0689 10.755 67.5047 13.9714 67.5047C16.3838 67.5047 18.7961 65.8879 21.51 62.2499V44.7674Z" fill="white"/>
<path d="M47.0892 0V63.7657C47.0892 68.4142 49.7025 70.4353 53.12 70.3343V72.0522H32.6152V70.3343C36.9373 70.4353 39.0481 68.3132 39.0481 62.6541V14.2488C39.0481 8.9939 38.0429 6.9728 35.4296 6.9728C34.525 6.9728 33.9219 7.07385 32.6152 7.57913L31.9116 5.96225L45.2799 0H47.0892Z" fill="white"/>
<path d="M65.9858 28.5986V58.9151C65.9858 64.4731 66.8904 67.5047 70.3079 67.5047C72.4187 67.5047 74.0269 66.2921 75.1326 63.8668H77.0423C75.1326 69.6269 70.911 73.467 66.1868 73.467C61.6637 73.467 57.9447 70.1322 57.9447 61.9467V28.5986H52.2154V26.6785C58.3467 23.1416 61.9652 18.392 64.2771 10.7118H65.9858V25.4659H74.5295V28.5986H65.9858Z" fill="white"/>
<path d="M102.051 36.8244L96.6684 60.3804C95.8241 63.8819 95.7186 64.943 95.7186 66.2163C95.7186 68.7629 97.3017 70.0362 100.89 70.2484L100.468 72.0522H79.9932L80.4154 70.2484C84.0037 69.824 85.9034 67.1713 87.4865 60.3804L98.3571 12.8441C99.0959 9.44864 99.3069 8.17535 99.3069 6.90206C99.3069 4.24936 97.4072 2.76385 94.03 2.86997L94.4521 0.960027H114.505C124.531 0.960027 134.241 5.52266 134.241 16.9823C134.241 26.6381 126.536 34.8084 115.455 36.8244C116.51 39.2649 117.143 40.9626 118.199 44.252L123.581 60.3804C126.22 68.2323 130.285 69.0101 134.295 69.4345C134.295 69.4345 135.048 72.2527 136.531 73.7365C130.668 74.5786 121.454 73.7365 117.266 66.2163C113.078 58.6961 106.695 37.4611 106.695 37.4611C104.689 37.4611 103.529 37.2489 102.051 36.8244ZM109.333 5.09823L102.79 33.6412C104.795 34.1717 106.273 34.384 108.278 34.384C117.671 34.384 124.214 26.9564 124.214 16.3456C124.214 8.812 120.309 4.24936 113.977 4.24936C112.394 4.24936 111.233 4.46158 109.333 5.09823Z" fill="white"/>
<path d="M169.807 60.3804L171.601 61.017C169.279 68.3384 164.635 73.3255 160.308 73.3255C156.614 73.3255 154.82 70.7789 152.815 53.4834H152.604C147.221 67.2774 142.395 72.8944 136.531 73.7365C130.668 74.5786 131.926 69.2598 133.861 69.3869C135.796 69.5139 136.958 69.0772 138.207 68.6838C139.981 68.1245 142.232 66.1395 142.232 66.1395C142.232 66.1395 145.216 64.0941 152.287 49.8757C148.91 31.4129 146.482 28.4419 143.422 28.4419C142.788 28.4419 141.839 28.4419 141.416 28.6541L141.1 26.9564L151.337 23.8793C153.765 25.3648 156.192 32.5801 157.458 38.7344H157.564C162.63 27.2747 166.535 23.8793 170.968 23.8793C173.923 23.8793 176.033 25.6831 176.033 28.2297C176.033 30.5641 174.239 32.0496 172.445 32.0496C170.967 32.0496 168.962 30.9885 167.696 30.9885C164.53 30.9885 161.68 33.9595 157.986 41.8115C161.68 63.8819 162.735 67.4896 164.635 67.4896C166.324 67.4896 168.329 64.8369 169.807 60.3804Z" fill="white"/>
<path d="M178.723 62.6086C181.678 62.6086 184 64.943 184 67.914C184 70.885 181.678 73.3255 178.723 73.3255C175.768 73.3255 173.34 70.885 173.34 67.914C173.34 64.943 175.768 62.6086 178.723 62.6086Z" fill="white"/>
</svg>
