<svg width="101" height="80" viewBox="0 0 101 80" fill="none" xmlns="http://www.w3.org/2000/svg">
<g clip-path="url(#clip0_316_14)">
<path d="M72.1651 0.303223C58.981 0.303223 47.3415 10.6873 44.4892 24.9931C44.2898 25.992 44.8562 26.9819 45.7554 27.2045C46.6522 27.4199 47.5441 26.7955 47.7427 25.7966C50.2605 13.172 60.5312 4.0095 72.1651 4.0095C85.9497 4.0095 97.1645 16.4784 97.1645 31.8066C97.1645 47.1348 85.9497 59.6037 72.1651 59.6037C70.0435 59.6037 67.9578 59.3124 65.9673 58.7369C65.0721 58.4709 64.1664 59.0735 63.9353 60.0634C63.7034 61.0551 64.238 62.0668 65.1291 62.3237C82.6617 67.5929 100.756 52.049 100.497 31.8064C100.498 14.4352 87.7881 0.303223 72.1651 0.303223Z" fill="#212326"/>
<path d="M72.1628 11.4185C71.2424 11.4185 70.4961 12.2473 70.4961 13.2716V31.8031C70.4961 32.8274 71.2424 33.6562 72.1628 33.6562H84.7943C86.9698 33.6451 86.9773 29.9611 84.7942 29.9499H73.8294V13.2716C73.8294 12.2473 73.0832 11.4185 72.1628 11.4185Z" fill="#212326"/>
<path d="M64.2452 9.79717C58.2297 12.4791 53.6897 17.9662 51.7887 24.8503C51.5185 25.8294 52.0133 26.8663 52.893 27.1667C53.7496 27.4656 54.7071 26.9265 54.9754 25.9379C56.5794 20.1288 60.4099 15.4995 65.4854 13.2356C67.4993 12.3353 66.2764 8.89217 64.2452 9.79717Z" fill="#212326"/>
<path d="M65.747 52.5586C65.2689 55.8142 70.2503 55.2541 72.1635 55.5087C80.9435 55.5084 88.943 49.3843 92.0704 40.2688C92.8326 38.0068 89.7451 36.6801 88.9552 38.9479C85.8605 48.2544 76.3952 53.7225 67.7675 51.2084C66.8789 50.9751 65.9699 51.565 65.747 52.5586Z" fill="#212326"/>
<path d="M61.8486 43.0432C63.1421 40.4148 62.4787 37.4073 61.1583 34.9846C60.0509 32.4962 57.8122 30.9507 55.3155 30.9507H41.9654C40.6699 30.9507 39.6152 29.7781 39.6152 28.3375C39.7148 21.7456 44.2432 14.1492 42.0091 7.65075C40.4831 2.34678 36.4142 -1.20251 33.0351 0.379033C32.0967 0.902336 31.3912 1.847 31.1023 2.95455L27.1457 17.6168C27.0187 18.0548 26.908 18.3606 26.7933 18.5941L19.9242 32.2972C19.5905 32.9704 19.1551 33.5585 18.6294 34.0472L10.6812 39.7695L1.88506 41.4471C1.08511 41.5991 0.5 42.37 0.5 43.2731V75.0733C0.5 76.0053 1.12173 76.7907 1.9526 76.9119L11.1158 78.2312L25.2154 79.9739C25.3675 80.044 44.9601 79.9463 45.1328 79.9849C46.1901 80.0822 52.772 78.4102 53.9419 78.2059C54.374 78.1099 54.7548 77.8276 54.9998 77.4204L60.0794 68.9583C61.104 67.2734 61.4327 65.1579 60.9827 63.1599C60.6999 61.7089 59.8624 59.4148 60.623 58.0005L61.6891 55.6297C62.7372 53.2988 62.5826 50.5065 61.2854 48.342L61.283 48.3384C61.1951 48.1918 61.1178 48.0235 61.0055 47.7086C60.6225 46.8111 60.6783 45.6502 61.0958 44.7552L61.8486 43.0432ZM57.9375 49.151C58.6276 50.6657 59.5747 52.2676 58.7072 53.9721L57.6836 56.2541C57.5534 56.5093 57.4664 56.7608 57.4102 56.9563C56.4814 59.138 57.2316 61.8561 57.748 64.054C57.9693 65.0366 57.813 66.0681 57.3093 66.897L52.6146 74.7222L46.119 76.1627C45.7544 76.2405 45.4313 76.2785 45.1327 76.2785H25.4912L11.5137 74.5502L3.83325 73.4445V44.8348L11.5813 43.3581C11.8034 43.3165 12.0158 43.2242 12.2054 43.0885L20.5215 37.1019C21.4836 36.2987 22.2555 35.2578 22.8391 34.096C23.1167 33.4292 30.6361 18.9002 30.3292 18.7135L34.2996 4.00237C34.4113 3.68343 34.5827 3.60503 34.8139 3.67296C36.1542 4.21229 37.938 5.53157 38.8259 8.74923C40.6546 14.8751 36.0236 22.0796 36.2821 28.3375C36.282 31.8212 38.8316 34.657 41.9654 34.657H55.3155C56.5362 34.657 57.6299 35.4117 58.1743 36.635C58.8566 38.0353 59.7149 39.8041 58.8677 41.3837L58.1149 43.0957C57.2679 44.8535 57.1767 47.4151 57.9375 49.151Z" fill="#212326"/>
</g>
<defs>
<clipPath id="clip0_316_14">
<rect width="101" height="80" fill="white"/>
</clipPath>
</defs>
</svg>
