<svg width="101" height="100" viewBox="0 0 101 100" fill="none" xmlns="http://www.w3.org/2000/svg">
<g clip-path="url(#clip0_316_22)">
<path d="M75.9148 30.1933H72.5679C72.0489 30.1933 71.5477 29.9606 71.2077 29.5668C70.8676 29.1731 70.7244 28.6362 70.8139 28.1172C70.9392 27.3118 70.9929 26.6138 70.9571 26.0052C70.7423 22.175 68.6483 21.8708 68.2188 21.8529C67.2523 21.8529 66.4648 21.0475 66.4648 20.0631C66.4648 19.0787 67.2523 18.2734 68.2368 18.2734H75.7538C76.7382 18.2734 77.5436 19.0787 77.5436 20.0631C77.5436 21.0475 76.7382 21.8529 75.7538 21.8529H73.5703C74.0894 22.8731 74.4294 24.1617 74.5368 25.7725C74.5547 26.041 74.5547 26.3274 74.5547 26.6137H75.9328C76.9172 26.6137 77.7226 27.4191 77.7226 28.4035C77.7226 29.3879 76.9172 30.1933 75.9328 30.1933H75.9148Z" fill="#212326"/>
<path d="M65.4808 99.2802H35.5203C35.037 99.2802 34.5896 99.0833 34.2495 98.7612C33.9094 98.439 33.7305 97.9737 33.7305 97.4904L33.7842 64.7556C33.7842 63.7712 34.5896 62.9658 35.574 62.9658C36.5583 62.9658 37.3637 63.7712 37.3637 64.7556L37.31 95.6829H63.691L63.6373 64.7556C63.6373 63.7712 64.4427 62.9658 65.4271 62.9658C66.4115 62.9658 67.2169 63.7712 67.2169 64.7556L67.2705 97.4904C67.2705 97.9736 67.0916 98.4211 66.7515 98.7612C66.4115 99.1012 65.9641 99.2802 65.4808 99.2802Z" fill="#212326"/>
<path d="M65.6256 52.1708C64.6412 52.1708 63.8359 51.3654 63.8359 50.381V46.175C63.8537 44.439 64.3728 41.0562 65.6615 39.2666C67.6482 36.5819 70.1896 32.0538 70.816 28.1341C70.9771 27.1677 71.872 26.4875 72.8743 26.6486C73.8408 26.8097 74.5209 27.7225 74.3598 28.7069C73.626 33.2708 70.8877 38.2463 68.561 41.3962C67.9524 42.2195 67.4513 44.7073 67.4334 46.2107V50.3987C67.4334 51.3831 66.628 52.1885 65.6436 52.1885L65.6256 52.1708Z" fill="#212326"/>
<path d="M35.5714 52.1703H35.5356C34.5513 52.1524 33.7637 51.3291 33.7817 50.3447L33.8712 45.7986C33.8712 44.671 33.4059 41.879 32.9942 40.9126C32.0098 38.6395 31.6519 34.2905 31.4192 28.4912C31.3834 27.5069 32.153 26.6656 33.1374 26.6299C34.1397 26.6299 34.963 27.3637 34.9988 28.3481C35.1062 31.0507 35.3567 37.3685 36.2874 39.4984C36.9675 41.0734 37.4507 44.3844 37.4507 45.8341L37.3612 50.4159C37.3433 51.3824 36.5379 52.1703 35.5714 52.1703Z" fill="#212326"/>
<path d="M36.7552 30.3546H36.7015C33.6768 30.3188 31.3859 28.0637 31.2785 24.9674C31.2427 23.9831 32.0123 23.1418 32.9966 23.1061C34.0347 23.0345 34.8223 23.8399 34.858 24.8243C34.8938 25.7549 35.4128 26.7572 36.7551 26.7751C37.8648 26.8109 38.8134 25.8802 38.8313 24.7348C38.8313 23.7504 39.6366 22.9629 40.621 22.9629C41.6054 22.9629 42.4108 23.7862 42.3929 24.7705C42.3571 27.8668 39.8336 30.3546 36.7552 30.3546Z" fill="#212326"/>
<path d="M32.9597 22.0132C31.9753 22.0132 31.1699 21.1899 31.1878 20.2056V18.5948C31.2415 15.4986 33.7651 13.0107 36.8435 13.0107H36.8972C38.4006 13.0107 39.8145 13.6193 40.8705 14.6932C41.9265 15.7671 42.4992 17.181 42.4813 18.7023C42.4813 19.6867 41.6759 20.4742 40.6915 20.4742C39.7071 20.4742 38.9017 19.6509 38.9196 18.6665C38.9196 18.1117 38.7227 17.5927 38.329 17.199C37.9531 16.8052 37.4341 16.5905 36.8793 16.5905C35.7696 16.6084 34.821 17.4853 34.8031 18.6307V20.2415C34.7852 21.2259 33.9798 22.0134 32.9955 22.0134L32.9597 22.0132Z" fill="#212326"/>
<path d="M44.4507 30.4246H44.397C42.8936 30.4246 41.4796 29.8161 40.4236 28.7422C39.3677 27.6682 38.7949 26.2365 38.8129 24.7331L38.9024 15.6052C38.9024 14.1018 39.5109 12.6878 40.5848 11.6318C41.6588 10.5758 43.1084 9.9852 44.5939 10.0211C46.0973 10.0211 47.5113 10.6296 48.5673 11.7035C49.6233 12.7774 50.196 14.1913 50.178 15.7126C50.178 16.697 49.3726 17.4845 48.3883 17.4845C47.4039 17.4845 46.5985 16.6612 46.6163 15.6769C46.6163 15.122 46.4195 14.603 46.0257 14.2093C45.6499 13.8156 45.1308 13.6008 44.576 13.6008H44.5581C43.4306 13.6008 42.5179 14.5136 42.4999 15.6411L42.4104 24.769C42.4104 25.3238 42.6073 25.8428 43.001 26.2365C43.3947 26.6302 43.8959 26.8451 44.4507 26.8451C45.6499 26.8093 46.509 25.9502 46.5268 24.8048C46.5268 23.8204 47.3322 23.0329 48.3166 23.0329C49.301 23.0329 50.1064 23.8562 50.0885 24.8405C50.0527 27.9368 47.5291 30.4246 44.4507 30.4246Z" fill="#212326"/>
<path d="M55.9949 26.6847C55.0105 26.6847 54.2051 25.8614 54.2229 24.877L54.3124 15.7491C54.3482 12.6529 56.8718 10.165 59.9503 10.165H60.0039C61.5074 10.165 62.9213 10.7736 63.9773 11.8475C65.0333 12.9214 65.606 14.3532 65.588 15.8566L65.5522 19.9731C65.5522 20.9575 64.7468 21.745 63.7625 21.745C62.7781 21.745 61.9727 20.9217 61.9906 19.9374L62.0264 15.8208C62.0264 15.266 61.8295 14.747 61.4357 14.3533C61.0599 13.9595 60.5409 13.7448 59.9861 13.7448H59.9682C58.8406 13.7448 57.9279 14.6575 57.9099 15.785L57.8204 24.9129C57.8204 25.8973 57.015 26.6848 56.0306 26.6848L55.9949 26.6847Z" fill="#212326"/>
<path d="M52.146 30.4975H52.0923C50.5889 30.4975 49.1749 29.8889 48.1189 28.815C47.0629 27.7411 46.4902 26.3093 46.5082 24.8059L46.6156 13.3692C46.6514 10.273 49.175 7.78516 52.2534 7.78516H52.3071C53.8105 7.78516 55.2245 8.39368 56.2804 9.4676C57.3364 10.5415 57.9092 11.9733 57.8912 13.4767V15.7855C57.8554 16.7698 56.9963 17.5574 56.0656 17.5574C55.0812 17.5574 54.2758 16.7341 54.2937 15.7497V13.441C54.3295 12.8861 54.1147 12.3671 53.7209 11.9734C53.3451 11.5796 52.826 11.3649 52.2712 11.3649C51.1437 11.3649 50.213 12.2598 50.1951 13.4052L50.0877 24.8418C50.0877 25.3967 50.2846 25.9157 50.6783 26.3094C51.0721 26.7031 51.5732 26.9179 52.128 26.9179C53.2735 26.9537 54.1863 26.023 54.2042 24.8776C54.2042 23.8932 55.0096 23.1057 55.9939 23.1057C56.9783 23.1057 57.7837 23.929 57.7658 24.9134C57.73 28.0096 55.2064 30.4975 52.128 30.4975H52.146Z" fill="#212326"/>
<path d="M54.3484 40.8613C53.364 40.8613 52.5586 40.0559 52.5586 39.0715C52.5586 33.8275 55.6907 30.7491 59.306 28.8161C57.3731 27.796 54.2052 25.5767 54.2409 21.9971C54.2409 20.8517 54.6526 19.921 55.3506 19.223C56.0486 18.5249 56.9972 18.1849 57.9816 18.167L68.2907 18.2565C69.2751 18.2565 70.0804 19.0798 70.0626 20.0641C70.0626 21.0485 69.2572 21.836 68.2728 21.836L57.9637 21.7465L57.8384 22.0329C57.8205 24.2701 61.3642 25.8451 61.758 26.0063C62.1697 26.1852 63.9952 26.4716 65.3733 26.6148C66.2145 26.7043 66.8767 27.3844 66.9662 28.2255C67.0378 29.0667 66.5188 29.8542 65.7133 30.1048C59.1091 32.1093 56.1559 34.8835 56.1559 39.0536C56.1559 40.038 55.3505 40.8434 54.3661 40.8434L54.3484 40.8613Z" fill="#212326"/>
<path d="M33.2089 30.1933H25.0476C24.0632 30.1933 23.2578 29.3879 23.2578 28.4035C23.2578 27.4191 24.0632 26.6137 25.0476 26.6137H31.3297C31.2581 24.7345 31.2044 23.0342 31.1686 21.853H25.2266C24.2422 21.853 23.4368 21.0476 23.4368 20.0632C23.4368 19.0788 24.2422 18.2734 25.2266 18.2734H32.9227C33.907 18.2734 34.6946 19.0609 34.7124 20.0274C34.7124 20.0632 34.784 23.9649 34.9988 28.314C35.0167 28.7973 34.8377 29.2805 34.5155 29.6384C34.1755 29.9964 33.7102 30.1932 33.2269 30.1932L33.2089 30.1933Z" fill="#212326"/>
<path d="M94.6677 42.0957H85.2534C82.7478 42.0957 80.6179 40.1269 80.2958 37.5139C78.9714 26.9542 78.9714 15.8751 80.3137 4.61756C80.6359 1.98656 82.7657 0 85.2713 0H94.6319C97.1376 0 99.2674 1.98668 99.5895 4.61756C100.932 15.8752 100.932 26.9539 99.6074 37.5139C99.2853 40.1269 97.1555 42.0957 94.6498 42.0957H94.6677ZM85.2714 3.56145C84.5734 3.56145 83.9649 4.18787 83.8753 5.029C82.5688 16.0003 82.5688 26.7926 83.8574 37.0662C83.9648 37.8895 84.5555 38.5159 85.2535 38.5159H94.6678C95.3658 38.5159 95.9743 37.8895 96.0639 37.0662C97.3525 26.7929 97.3525 16.0002 96.046 5.029C95.9386 4.18781 95.348 3.56145 94.6499 3.56145H85.2714Z" fill="#212326"/>
<path d="M91.8822 36.0818C91.7748 36.0818 91.6674 36.0818 91.56 36.046C90.5936 35.867 89.9313 34.9363 90.1103 33.9698C91.7211 24.9137 91.7211 16.2153 90.1103 8.14325C89.9135 7.17678 90.5399 6.22817 91.5243 6.03127C92.4908 5.83438 93.4394 6.46081 93.6183 7.44521C95.3007 15.9646 95.3007 25.0921 93.6183 34.596C93.4572 35.455 92.7055 36.0815 91.8644 36.0815L91.8822 36.0818Z" fill="#212326"/>
<path d="M15.7263 42.0957H6.31198C3.8063 42.0957 1.67644 40.1269 1.35434 37.5139C0.0299613 26.9542 0.0299612 15.8751 1.37224 4.61756C1.67649 1.98656 3.8242 0 6.32988 0H15.6904C18.1961 0 20.3438 1.98668 20.6481 4.61756C21.9904 15.8752 21.9904 26.9539 20.666 37.5139C20.3438 40.1269 18.214 42.0957 15.7083 42.0957H15.7263ZM6.32996 3.56145C5.63195 3.56145 5.02346 4.18787 4.93389 5.029C3.62738 16.0003 3.62738 26.7926 4.91599 37.0662C5.02337 37.8895 5.6319 38.5159 6.31207 38.5159H15.7263C16.4244 38.5159 17.0329 37.8895 17.1224 37.0662C18.4111 26.7929 18.3932 16.0002 17.1045 5.029C16.9971 4.18781 16.4065 3.56145 15.7085 3.56145H6.32996Z" fill="#212326"/>
<path d="M9.08606 36.0817C8.22697 36.0817 7.47532 35.4731 7.33214 34.5961C5.6497 25.0924 5.6497 15.9642 7.33214 7.44541C7.52902 6.47893 8.4597 5.85254 9.44413 6.03146C10.4107 6.22834 11.037 7.15902 10.8581 8.14345C9.26521 16.2154 9.26521 24.9141 10.8581 33.97C11.0371 34.9365 10.3749 35.8671 9.40839 36.0462C9.301 36.0641 9.19345 36.0817 9.08606 36.0817Z" fill="#212326"/>
<path d="M65.428 66.5611H35.5568C32.7111 66.5611 30.4023 64.2523 30.4023 61.4065V53.7463C30.4023 50.9005 32.7111 48.5918 35.5568 48.5918H65.428C68.2738 48.5918 70.5825 50.9005 70.5825 53.7463V61.4065C70.5825 64.2523 68.2738 66.5611 65.428 66.5611ZM35.5752 52.1719C34.6982 52.1719 34.0002 52.8878 34.0002 53.7469V61.4071C34.0002 62.2841 34.7161 62.9821 35.5752 62.9821H65.4463C66.3233 62.9821 67.0213 62.2662 67.0213 61.4071V53.7469C67.0213 52.8699 66.3233 52.1719 65.4463 52.1719H35.5752Z" fill="#212326"/>
</g>
<defs>
<clipPath id="clip0_316_22">
<rect width="101" height="100" fill="white"/>
</clipPath>
</defs>
</svg>
