<svg width="100" height="95" viewBox="0 0 100 95" fill="none" xmlns="http://www.w3.org/2000/svg">
<g clip-path="url(#clip0_316_56)">
<path d="M73.3234 63.2896V55.1248C73.3234 54.7071 73.1478 54.3065 72.8353 54.0111C72.5228 53.7157 72.0989 53.5498 71.6569 53.5498C71.215 53.5498 70.7911 53.7157 70.4786 54.0111C70.166 54.3065 69.9905 54.7071 69.9905 55.1248V63.2896C69.0191 63.6142 68.1775 64.2145 67.5809 65.0084C66.9843 65.8023 66.6618 66.751 66.6575 67.7248C66.662 67.9933 66.6905 68.2609 66.7425 68.5249L59.1484 72.5522C58.9574 72.6534 58.7895 72.7892 58.6541 72.9518C58.5186 73.1144 58.4184 73.3006 58.3592 73.4998C58.2999 73.699 58.2827 73.9073 58.3086 74.1128C58.3345 74.3182 58.403 74.5169 58.5101 74.6973C58.6172 74.8778 58.7609 75.0365 58.933 75.1645C59.105 75.2925 59.302 75.3872 59.5128 75.4432C59.7236 75.4992 59.9439 75.5155 60.1613 75.491C60.3787 75.4665 60.5889 75.4018 60.7799 75.3006L68.384 71.267C69.2857 72.0255 70.4498 72.4462 71.6569 72.4498C72.8348 72.4519 73.9755 72.06 74.877 71.3434C75.7784 70.6268 76.3824 69.6318 76.582 68.5346C76.7816 67.4375 76.5639 66.309 75.9675 65.349C75.3711 64.389 74.4344 63.6594 73.3234 63.2896ZM71.6569 69.2998C71.3273 69.2998 71.0051 69.2074 70.7311 69.0344C70.457 68.8613 70.2434 68.6153 70.1173 68.3275C69.9912 68.0397 69.9582 67.7231 70.0225 67.4175C70.0868 67.112 70.2455 66.8314 70.4786 66.6111C70.7116 66.3908 71.0086 66.2408 71.3318 66.1801C71.6551 66.1193 71.9902 66.1505 72.2947 66.2697C72.5992 66.3889 72.8594 66.5908 73.0426 66.8498C73.2257 67.1088 73.3234 67.4133 73.3234 67.7248C73.3234 68.1425 73.1478 68.5431 72.8353 68.8385C72.5228 69.1339 72.0989 69.2998 71.6569 69.2998Z" fill="#212326"/>
<path d="M39.994 42.5244C41.0812 42.6141 42.1728 42.408 43.1401 41.9305C44.1075 41.4531 44.9101 40.724 45.4534 39.8295C48.3097 34.9124 42.982 25.1285 41.4005 22.7786C41.24 22.5678 41.0287 22.3962 40.7841 22.2778C40.5396 22.1594 40.2688 22.0977 39.994 22.0977C39.7192 22.0977 39.4484 22.1594 39.2039 22.2778C38.9593 22.3962 38.748 22.5678 38.5875 22.7786C37.006 25.1285 31.6783 34.9061 34.5346 39.8295C35.0779 40.724 35.8805 41.4531 36.8479 41.9305C37.8152 42.408 38.9068 42.6141 39.994 42.5244ZM39.994 26.8578C41.9838 30.6378 43.8686 36.0102 42.5304 38.3128C42.2671 38.768 41.7155 39.3744 39.994 39.3744C38.2725 39.3744 37.7209 38.768 37.4576 38.3128C36.1194 36.0102 38.0042 30.6441 39.994 26.8578Z" fill="#212326"/>
<path d="M71.6584 40.95C67.0063 40.9474 62.4259 42.0339 58.3266 44.1126V30.8952C58.3281 27.207 57.236 23.5923 55.1741 20.461C53.1122 17.3297 50.1631 14.8072 46.6613 13.1796V9.45H48.3277C48.7697 9.45 49.1936 9.28406 49.5061 8.98869C49.8186 8.69332 49.9942 8.29272 49.9942 7.875V1.575C49.9942 1.15728 49.8186 0.756677 49.5061 0.461307C49.1936 0.165937 48.7697 0 48.3277 0H31.663C31.221 0 30.7972 0.165937 30.4846 0.461307C30.1721 0.756677 29.9965 1.15728 29.9965 1.575V7.875C29.9965 8.29272 30.1721 8.69332 30.4846 8.98869C30.7972 9.28406 31.221 9.45 31.663 9.45H33.3295V13.1796C29.8277 14.8072 26.8785 17.3297 24.8166 20.461C22.7547 23.5923 21.6626 27.207 21.6642 30.8952V66.15H1.66647C1.2245 66.15 0.800623 66.3159 0.488099 66.6113C0.175574 66.9067 0 67.3073 0 67.725V80.325C0.00441091 84.0832 1.586 87.6862 4.39776 90.3436C7.20953 93.0011 11.0218 94.4958 14.9983 94.5H21.6642C23.0639 94.4972 24.4562 94.3084 25.8004 93.9393C26.3187 94.0325 26.8498 94.0431 27.3718 93.9708L33.5645 93.1345C34.5967 92.9956 35.6381 92.9256 36.6808 92.925H43.31C44.3521 92.9256 45.3929 92.9956 46.4246 93.1345L52.6189 93.9708C53.3278 94.0659 54.0501 94.0167 54.7373 93.8266C55.4245 93.6364 56.0607 93.3097 56.6035 92.8683C57.1775 92.3939 57.6285 91.8011 57.9216 91.1358C61.7039 93.1198 65.9166 94.2589 70.2368 94.4657C74.557 94.6725 78.87 93.9416 82.845 92.3289C86.82 90.7162 90.3514 88.2647 93.1686 85.1622C95.9857 82.0598 98.0137 78.3888 99.0971 74.4308C100.181 70.4727 100.29 66.3328 99.4186 62.3284C98.5467 58.324 96.7162 54.5615 94.0673 51.3293C91.4184 48.0971 88.0216 45.4812 84.1372 43.6821C80.2529 41.8829 75.9841 40.9483 71.6584 40.95ZM33.3295 3.15H46.6613V6.3H33.3295V3.15ZM43.3283 9.45V12.6H36.6624V9.45H43.3283ZM35.3459 15.75H44.6448C47.7305 17.0636 50.3488 19.1919 52.1848 21.8788C54.0207 24.5657 54.9961 27.6967 54.9936 30.8952V46.1207C53.7939 46.9377 52.6634 47.8419 51.6124 48.825H24.9971V30.8952C24.9946 27.6967 25.97 24.5657 27.806 21.8788C29.642 19.1919 32.2603 17.0636 35.3459 15.75ZM14.9983 91.35C11.9057 91.3463 8.94084 90.1835 6.75402 88.1167C4.56721 86.0499 3.33692 83.2479 3.33295 80.325V69.3H33.3295V80.325C33.3255 83.2479 32.0952 86.0499 29.9084 88.1167C27.7216 90.1835 24.7568 91.3463 21.6642 91.35H14.9983ZM36.6624 72.5303C37.6042 72.7111 38.451 73.194 39.0591 73.8972C39.6673 74.6005 39.9996 75.4808 39.9996 76.3891C39.9996 77.2973 39.6673 78.1777 39.0591 78.8809C38.451 79.5842 37.6042 80.0671 36.6624 80.2478V72.5303ZM54.4187 90.4853C54.2389 90.6358 54.0262 90.7469 53.7958 90.8109C53.5654 90.8749 53.3229 90.8901 53.0855 90.8555L46.8913 90.0176C45.7049 89.8584 44.5082 89.7774 43.31 89.775H36.6808C35.4804 89.7762 34.2815 89.8562 33.0928 90.0144L32.5046 90.0947C34.3826 88.2394 35.6903 85.9357 36.2875 83.4309C38.1572 83.3303 39.9186 82.5687 41.2217 81.2975C42.5249 80.0262 43.2745 78.3383 43.3217 76.5688C43.3689 74.7994 42.7103 73.0779 41.4766 71.7461C40.2429 70.4144 38.5245 69.5699 36.6624 69.3803V67.725C36.6624 67.3073 36.4869 66.9067 36.1743 66.6113C35.8618 66.3159 35.4379 66.15 34.996 66.15H24.9971V51.975H28.3301V63C28.3301 63.4177 28.5056 63.8183 28.8182 64.1137C29.1307 64.4091 29.5546 64.575 29.9965 64.575C30.4385 64.575 30.8624 64.4091 31.1749 64.1137C31.4874 63.8183 31.663 63.4177 31.663 63V51.975H48.7994C46.5984 54.8073 45.0121 58.0231 44.1319 61.4373C43.2517 64.8516 43.0949 68.3966 43.6707 71.8683C44.2465 75.34 45.5434 78.6698 47.4867 81.6657C49.43 84.6617 51.9813 87.2646 54.9936 89.3246C54.9907 89.5451 54.9379 89.7625 54.8387 89.9622C54.7395 90.1618 54.5963 90.3391 54.4187 90.4822V90.4853ZM71.6584 91.35C66.7144 91.35 61.8815 89.9644 57.7707 87.3685C53.66 84.7725 50.456 81.0828 48.5641 76.7659C46.6721 72.449 46.1771 67.6988 47.1416 63.116C48.1061 58.5332 50.4869 54.3236 53.9828 51.0196C57.4787 47.7156 61.9327 45.4655 66.7817 44.554C71.6307 43.6424 76.6567 44.1102 81.2244 45.8983C85.792 47.6865 89.696 50.7145 92.4427 54.5997C95.1894 58.4848 96.6555 63.0524 96.6555 67.725C96.648 73.9886 94.012 79.9936 89.3257 84.4226C84.6395 88.8516 78.2857 91.3429 71.6584 91.35Z" fill="#212326"/>
<path d="M90.4079 57.5125C88.6 54.563 86.0456 52.0838 82.9738 50.2975C82.9321 50.2676 82.9055 50.2234 82.8588 50.1967C82.8121 50.1699 82.7605 50.1699 82.7138 50.1478C79.4472 48.2949 75.7182 47.2956 71.9086 47.2524C68.099 47.2093 64.3457 48.1237 61.033 49.9021C61.0063 49.9147 60.9747 49.9147 60.9463 49.9289C60.918 49.9431 60.888 49.984 60.853 50.0061C57.7336 51.7148 55.1116 54.1284 53.2222 57.0306C53.184 57.0654 53.1478 57.1022 53.1139 57.1408C53.0872 57.1849 53.0856 57.2338 53.0623 57.2779C51.101 60.3647 50.0433 63.8888 49.9976 67.4892C49.9519 71.0896 50.9199 74.6367 52.8023 77.767C52.8156 77.7938 52.8156 77.8237 52.8306 77.8505C52.8673 77.9017 52.9073 77.9506 52.9506 77.997C54.7559 80.9205 57.2961 83.3782 60.3464 85.1522C60.3881 85.1821 60.4147 85.2262 60.4614 85.253C60.5269 85.2839 60.5942 85.3113 60.663 85.3349C63.9203 87.1696 67.6331 88.1573 71.4246 88.198C75.2162 88.2387 78.9517 87.3308 82.2522 85.5664C82.2922 85.5491 82.3339 85.5412 82.3739 85.5208C82.4139 85.5003 82.4322 85.4656 82.4672 85.4436C85.562 83.7469 88.1681 81.3574 90.0563 78.4852C90.1108 78.43 90.1609 78.371 90.2063 78.3088C90.233 78.2647 90.2346 78.2159 90.258 78.1718C92.2193 75.085 93.2769 71.5609 93.3226 67.9605C93.3683 64.3601 92.4003 60.813 90.5179 57.6826C90.5046 57.6559 90.5046 57.6259 90.4896 57.5992C90.4746 57.5724 90.4313 57.544 90.4079 57.5125ZM82.1289 81.925L81.8123 81.4006C81.7077 81.2146 81.5647 81.0504 81.3918 80.9176C81.2189 80.7847 81.0195 80.6861 80.8055 80.6273C80.5916 80.5686 80.3673 80.551 80.146 80.5756C79.9247 80.6002 79.7109 80.6665 79.5172 80.7706C79.3235 80.8747 79.1538 81.0144 79.0183 81.1815C78.8827 81.3486 78.7839 81.5398 78.7279 81.7436C78.6718 81.9474 78.6596 82.1598 78.6919 82.3681C78.7242 82.5765 78.8004 82.7766 78.9159 82.9567L79.2309 83.4827C77.3661 84.2909 75.3696 84.7936 73.3266 84.9695V84.3568C73.3266 83.9391 73.151 83.5385 72.8385 83.2432C72.526 82.9478 72.1021 82.7818 71.6601 82.7818C71.2181 82.7818 70.7942 82.9478 70.4817 83.2432C70.1692 83.5385 69.9936 83.9391 69.9936 84.3568V84.9695C67.7922 84.779 65.6461 84.21 63.661 83.2906L63.9943 82.7771C64.2228 82.4196 64.2917 81.9908 64.1857 81.5853C64.0798 81.1798 63.8077 80.8306 63.4294 80.6146C63.0511 80.3987 62.5974 80.3336 62.1684 80.4337C61.7393 80.5339 61.3698 80.791 61.1413 81.1486L60.808 81.6573C59.1925 80.5347 57.7814 79.1707 56.6302 77.619L57.1851 77.3197C57.556 77.1071 57.8246 76.7662 57.9337 76.3694C58.0428 75.9726 57.9839 75.5512 57.7696 75.1948C57.5552 74.8383 57.2022 74.575 56.7856 74.4606C56.369 74.3463 55.9217 74.39 55.5386 74.5824L54.982 74.8801C54.1287 73.1174 53.5984 71.2304 53.4139 69.2998H54.0621C54.5041 69.2998 54.928 69.1339 55.2405 68.8385C55.553 68.5432 55.7286 68.1426 55.7286 67.7248C55.7286 67.3071 55.553 66.9065 55.2405 66.6112C54.928 66.3158 54.5041 66.1498 54.0621 66.1498H53.4139C53.6155 64.0693 54.2175 62.041 55.1903 60.1649L55.7336 60.4799C55.9209 60.5868 56.1287 60.6578 56.3451 60.6888C56.5615 60.7199 56.7822 60.7103 56.9946 60.6608C57.2071 60.6112 57.4072 60.5225 57.5834 60.3999C57.7596 60.2772 57.9085 60.123 58.0217 59.9459C58.1348 59.7689 58.21 59.5725 58.2428 59.368C58.2757 59.1635 58.2656 58.9549 58.2131 58.7541C58.1606 58.5533 58.0668 58.3642 57.9371 58.1977C57.8073 58.0311 57.6441 57.8904 57.4567 57.7834L56.9185 57.4684C58.1063 55.9416 59.5495 54.608 61.1913 53.5199L61.5079 54.0444C61.7329 54.3949 62.0937 54.6487 62.5135 54.7519C62.9334 54.855 63.3792 54.7994 63.7563 54.5968C64.1335 54.3942 64.4121 54.0605 64.5331 53.6668C64.6541 53.2731 64.6079 52.8503 64.4043 52.4883L64.0893 51.9622C65.9544 51.1557 67.9509 50.6546 69.9936 50.4802V51.0928C69.9936 51.5106 70.1692 51.9112 70.4817 52.2065C70.7942 52.5019 71.2181 52.6678 71.6601 52.6678C72.1021 52.6678 72.526 52.5019 72.8385 52.2065C73.151 51.9112 73.3266 51.5106 73.3266 51.0928V50.4802C75.528 50.6707 77.6741 51.2397 79.6592 52.1591L79.3259 52.6726C79.0974 53.0301 79.0285 53.4588 79.1345 53.8644C79.2404 54.2699 79.5125 54.6191 79.8908 54.8351C80.2691 55.051 80.7228 55.1161 81.1519 55.016C81.5809 54.9158 81.9504 54.6587 82.1789 54.3011L82.5122 53.7924C84.1277 54.915 85.5388 56.279 86.69 57.8307L86.1351 58.1299C85.9383 58.2288 85.7646 58.3639 85.624 58.5273C85.4835 58.6908 85.3791 58.8792 85.3169 59.0814C85.2548 59.2836 85.2362 59.4956 85.2622 59.7047C85.2883 59.9139 85.3584 60.116 85.4685 60.299C85.5786 60.4821 85.7265 60.6425 85.9033 60.7706C86.0802 60.8987 86.2824 60.992 86.498 61.045C86.7137 61.098 86.9384 61.1096 87.1588 61.079C87.3793 61.0485 87.5911 60.9765 87.7816 60.8673L88.3382 60.5696C89.1915 62.3323 89.7218 64.2193 89.9063 66.1498H89.2581C88.8161 66.1498 88.3922 66.3158 88.0797 66.6112C87.7672 66.9065 87.5916 67.3071 87.5916 67.7248C87.5916 68.1426 87.7672 68.5432 88.0797 68.8385C88.3922 69.1339 88.8161 69.2998 89.2581 69.2998H89.9063C89.7047 71.3804 89.1027 73.4087 88.1299 75.2848L87.5866 74.9698C87.2083 74.7539 86.7547 74.6888 86.3256 74.7889C85.8965 74.8891 85.527 75.1462 85.2985 75.5038C85.07 75.8613 85.0012 76.29 85.1071 76.6956C85.2131 77.1011 85.4851 77.4503 85.8635 77.6662L86.4017 77.9812C85.2136 79.507 83.7704 80.838 82.1289 81.925Z" fill="#212326"/>
<path d="M4.21883 61.2975C4.31676 61.4825 4.45229 61.6474 4.61768 61.783C4.78307 61.9185 4.97509 62.0219 5.18276 62.0872C5.39043 62.1526 5.60969 62.1787 5.82802 62.164C6.04635 62.1493 6.25948 62.0941 6.45524 62.0015C6.65099 61.9089 6.82554 61.7808 6.96892 61.6245C7.1123 61.4682 7.2217 61.2867 7.29087 61.0905C7.36004 60.8942 7.38763 60.687 7.37207 60.4806C7.3565 60.2743 7.29808 60.0729 7.20015 59.8878C6.77613 59.0924 6.5962 58.2006 6.68072 57.3135C6.76525 56.4264 7.11086 55.5794 7.67843 54.8683C8.62093 53.6901 9.19515 52.2858 9.33595 50.8148C9.47675 49.3438 9.17849 47.8649 8.475 46.546C8.37822 46.3594 8.24331 46.1927 8.07803 46.0555C7.91276 45.9184 7.72039 45.8135 7.51203 45.747C7.30367 45.6804 7.08343 45.6535 6.86401 45.6678C6.6446 45.6821 6.43034 45.7373 6.2336 45.8302C6.03686 45.9231 5.86153 46.0519 5.71771 46.2092C5.57389 46.3664 5.46444 46.5491 5.39566 46.7465C5.32687 46.9439 5.30012 47.1523 5.31695 47.3595C5.33377 47.5668 5.39384 47.7689 5.49368 47.9541C5.91752 48.7505 6.09719 49.6431 6.01238 50.5309C5.92756 51.4188 5.58165 52.2665 5.01374 52.9783C4.07216 54.1563 3.49861 55.5601 3.35811 57.0305C3.21761 58.5009 3.51578 59.9791 4.21883 61.2975Z" fill="#212326"/>
<path d="M11.5234 61.2975C11.6213 61.4825 11.7568 61.6474 11.9222 61.783C12.0876 61.9185 12.2796 62.0219 12.4873 62.0872C12.695 62.1526 12.9142 62.1787 13.1326 62.164C13.3509 62.1493 13.564 62.0941 13.7598 62.0015C13.9555 61.9089 14.1301 61.7808 14.2735 61.6245C14.4168 61.4682 14.5262 61.2867 14.5954 61.0905C14.6646 60.8942 14.6922 60.687 14.6766 60.4806C14.661 60.2743 14.6026 60.0729 14.5047 59.8878C14.081 59.092 13.9013 58.1999 13.9862 57.3125C14.071 56.4252 14.4168 55.578 14.9846 54.8667C15.9262 53.6884 16.4997 52.2844 16.6402 50.8137C16.7807 49.3431 16.4826 47.8647 15.7796 46.546C15.6828 46.3594 15.5479 46.1927 15.3826 46.0555C15.2173 45.9184 15.0249 45.8135 14.8166 45.747C14.6082 45.6804 14.388 45.6535 14.1686 45.6678C13.9491 45.6821 13.7349 45.7373 13.5381 45.8302C13.3414 45.9231 13.1661 46.0519 13.0223 46.2092C12.8784 46.3664 12.769 46.5491 12.7002 46.7465C12.6314 46.9439 12.6047 47.1523 12.6215 47.3595C12.6383 47.5668 12.6984 47.7689 12.7982 47.9541C13.2223 48.75 13.4023 49.6423 13.3178 50.5299C13.2333 51.4176 12.8876 52.2651 12.32 52.9767C11.3778 54.1548 10.8037 55.5588 10.6629 57.0295C10.5222 58.5002 10.8202 59.9787 11.5234 61.2975Z" fill="#212326"/>
</g>
<defs>
<clipPath id="clip0_316_56">
<rect width="100" height="95" fill="white"/>
</clipPath>
</defs>
</svg>
