<svg width="81" height="100" viewBox="0 0 81 100" fill="none" xmlns="http://www.w3.org/2000/svg">
<g clip-path="url(#clip0_316_39)">
<path d="M40.4263 93.6711H9.12354C6.34014 93.6711 4.08569 91.5031 4.08569 88.8264V21.4488C4.08569 18.7721 6.34014 16.5955 9.12354 16.5869H20.3826V13.1387H9.12354C4.35912 13.1473 0.5 16.867 0.5 21.4488V88.8264C0.508965 93.4038 4.36359 97.1107 9.12354 97.1193H40.4263C41.4168 97.1193 42.2191 96.3477 42.2191 95.3952C42.2191 94.4426 41.4168 93.6711 40.4263 93.6711Z" fill="#212326"/>
<path d="M67.0703 21.4478V47.982C67.0703 48.9346 67.8726 49.7061 68.8631 49.7061C69.8537 49.7061 70.656 48.9346 70.656 47.982V21.4478C70.656 16.8661 66.7969 13.1463 62.0324 13.1377H50.7734V16.5859H62.0324C64.8158 16.5945 67.0703 18.7712 67.0703 21.4478Z" fill="#212326"/>
<path d="M25.6003 20.3967H45.5367C45.9759 20.3967 46.3928 20.2329 46.702 19.9312C47.0158 19.6338 47.1861 19.2329 47.1861 18.8105V11.9313C47.1816 11.5132 47.0068 11.1124 46.6975 10.8193C46.3883 10.5262 45.9714 10.3581 45.5367 10.3624H25.6003C24.6994 10.3667 23.9732 11.065 23.9688 11.9314V18.8106C23.9643 19.2287 24.1391 19.6295 24.4439 19.9269C24.7486 20.2243 25.1655 20.3924 25.6003 20.3967Z" fill="#212326"/>
<path d="M35.5672 3.44828C36.7729 3.43966 37.9292 3.90086 38.7764 4.72406C39.3994 5.32319 39.8297 6.08614 40.0134 6.91371H43.6349C43.4377 5.15948 42.613 3.52585 41.3043 2.2931C39.7893 0.819031 37.7231 -0.00854027 35.5672 6.64674e-05C31.4526 0.00437646 27.9968 2.98274 27.5352 6.91371H31.1567C31.596 4.90514 33.4337 3.46119 35.5672 3.44828Z" fill="#212326"/>
<path d="M54.5455 35.5518H32.1444C31.1539 35.5518 30.3516 36.3233 30.3516 37.2759C30.3516 38.2284 31.1539 39 32.1444 39H54.5546C55.5452 39 56.3475 38.2284 56.3475 37.2759C56.3475 36.3233 55.5452 35.5518 54.5546 35.5518H54.5455Z" fill="#212326"/>
<path d="M28.1163 30.6153C27.4037 29.9515 26.2697 29.9645 25.5795 30.6455L19.7886 36.3781L18.0496 34.1281C17.7672 33.7531 17.3414 33.5031 16.8708 33.4342C16.3957 33.3609 15.9116 33.4773 15.5262 33.7531C15.1407 34.029 14.8897 34.4385 14.8225 34.8954C14.7552 35.3523 14.8807 35.8178 15.1721 36.1842L18.1662 40.0591C18.4799 40.4643 18.964 40.7143 19.4883 40.7488H19.6093C20.0889 40.7488 20.5551 40.5634 20.8912 40.2315L28.1478 33.0592C28.4839 32.7317 28.6677 32.2877 28.6587 31.8308C28.6542 31.3696 28.457 30.9343 28.1163 30.6153Z" fill="#212326"/>
<path d="M54.5455 50.2061H32.1444C31.1539 50.2061 30.3516 50.9776 30.3516 51.9302C30.3516 52.8827 31.1539 53.6543 32.1444 53.6543H54.5546C55.5452 53.6543 56.3475 52.8827 56.3475 51.9302C56.3475 50.9776 55.5452 50.2061 54.5546 50.2061H54.5455Z" fill="#212326"/>
<path d="M28.1163 45.2704C27.4037 44.6067 26.2697 44.6239 25.5795 45.3049L19.7886 51.0333L18.0496 48.7747C17.7672 48.3997 17.3414 48.1497 16.8708 48.0807C16.3957 48.0117 15.9117 48.1238 15.5262 48.3997C15.1407 48.6755 14.8897 49.0893 14.8225 49.5462C14.7552 50.0031 14.8807 50.4643 15.1721 50.8307L18.1662 54.7056C18.4799 55.1108 18.964 55.3651 19.4883 55.3953H19.6093C20.0889 55.3996 20.5551 55.2099 20.8912 54.8781L28.1478 47.7058C28.838 47.0247 28.8245 45.9342 28.1163 45.2704Z" fill="#212326"/>
<path d="M43.3452 64.8652H32.1444C31.1539 64.8652 30.3516 65.6368 30.3516 66.5893C30.3516 67.5419 31.1539 68.3135 32.1444 68.3135H43.3452C44.3357 68.3135 45.138 67.5419 45.138 66.5893C45.138 65.6368 44.3357 64.8652 43.3452 64.8652Z" fill="#212326"/>
<path d="M28.1196 59.9307C27.407 59.267 26.273 59.2799 25.5828 59.9609L19.7919 65.6893L18.0529 63.4307C17.4567 62.6807 16.3452 62.5298 15.5608 63.0944C14.7719 63.6548 14.6016 64.7238 15.1753 65.4867L18.1694 69.3659C18.4831 69.7711 18.9672 70.0211 19.4916 70.0555H19.6126C20.0922 70.0555 20.5583 69.8702 20.8945 69.5383L28.151 62.366C28.8412 61.685 28.8278 60.5945 28.1196 59.9307Z" fill="#212326"/>
<path d="M39.8537 82.9677C40.8443 82.9677 41.6466 82.1962 41.6466 81.2436C41.6466 80.2911 40.8443 79.5195 39.8537 79.5195H32.1444C31.1539 79.5195 30.3516 80.2911 30.3516 81.2436C30.3516 82.1962 31.1539 82.9677 32.1444 82.9677H39.8537Z" fill="#212326"/>
<path d="M25.5828 74.6198L19.7919 80.3438L18.0528 78.0895C17.4567 77.3395 16.3451 77.193 15.5608 77.7533C14.7719 78.318 14.6016 79.3827 15.1753 80.1456L18.1694 84.0248C18.4831 84.4299 18.9672 84.6799 19.4915 84.7144H19.6126C20.0921 84.7144 20.5583 84.5291 20.8944 84.1972L28.151 77.0249C28.8278 76.3396 28.8098 75.2576 28.1061 74.6025C27.398 73.9431 26.2774 73.9517 25.5828 74.6198Z" fill="#212326"/>
<path d="M77.199 71.6025C73.8823 69.8612 68.2169 72.8611 66.3164 74.1542C64.7253 75.1757 62.6456 75.1714 61.0634 74.1369C58.5624 72.4214 55.64 71.3612 52.5833 71.0681C51.7496 71.0465 50.9205 71.2319 50.1808 71.6026C47.7784 72.8611 46.649 76.6715 46.9178 82.6368C47.2405 89.654 49.2665 94.6366 52.9776 97.4294C55.9672 99.5156 59.6918 100.382 63.3401 99.8432C63.5687 99.7914 63.8108 99.7914 64.0393 99.8432C64.7386 99.9509 65.4468 100.003 66.155 99.9983C69.1265 100.046 72.0265 99.1449 74.402 97.4294C78.0954 94.6364 80.1391 89.6537 80.4618 82.6369C80.7307 76.6715 79.6015 72.8611 77.199 71.6025ZM52.9953 77.0852C52.3141 77.4473 51.2563 79.1369 52.1169 82.9989C52.211 83.4472 52.1169 83.9127 51.8569 84.2963C51.5925 84.6756 51.1846 84.9429 50.7184 85.0334C50.6019 85.0679 50.4809 85.0851 50.3599 85.0851C49.5083 85.0851 48.7732 84.5076 48.6029 83.7058C46.8639 75.8267 51.4177 73.9819 51.597 73.9129C52.5248 73.5595 53.5737 73.9905 53.9457 74.8784C54.2953 75.7405 53.8783 76.7146 52.9953 77.0852Z" fill="#212326"/>
<path d="M65.5625 64.2745C67.7497 64.1064 69.8115 63.2228 71.4072 61.7745C73.0701 60.0763 74.1681 57.9384 74.5626 55.6367C72.1692 55.9988 69.9416 57.0504 68.1801 58.6539C66.6696 60.1884 65.7462 62.171 65.5625 64.2745Z" fill="#212326"/>
</g>
<defs>
<clipPath id="clip0_316_39">
<rect width="81" height="100" fill="white"/>
</clipPath>
</defs>
</svg>
